<svg width="70" height="70" viewBox="0 0 70 70" fill="none" xmlns="http://www.w3.org/2000/svg">
<path fill-rule="evenodd" clip-rule="evenodd" d="M10.03 34.6657C9.96676 36.2273 9.64252 37.7673 9.07069 39.2217L7.55662 43.073C5.49325 48.3214 9.36243 54 15.0019 54H54.9957C60.6352 54 64.5044 48.3214 62.441 43.073L60.9269 39.2218C60.3551 37.7673 60.0309 36.2273 59.9676 34.6657L59.5626 24.6596C59.4934 11.0962 48.5899 0 34.9988 0C21.4074 0 10.5037 11.0966 10.435 24.6604L10.03 34.6657ZM14.6547 41.417C15.4716 39.3392 15.9348 37.1392 16.0251 34.9083L16.4346 24.7899C16.4346 14.4127 24.7461 6 34.9988 6C45.2515 6 53.5629 14.4123 53.5629 24.7895L53.9726 34.9083C54.0629 37.1392 54.5261 39.3392 55.343 41.417L56.857 45.2683C57.3729 46.5804 56.4056 48 54.9957 48H15.0019C13.592 48 12.6247 46.5804 13.1406 45.2683L14.6547 41.417Z" fill="white"/>
<path d="M48.0751 61.2153C48.7732 59.5639 47.579 57.8471 45.8176 57.512C44.3344 57.2298 42.9404 58.2471 42.2157 59.5716C41.7255 60.4676 41.0759 61.2716 40.2924 61.939C38.8137 63.1987 36.9508 63.8927 35.0247 63.9013C33.0986 63.91 31.2299 63.2329 29.7403 61.9866C28.9515 61.3266 28.2951 60.5289 27.7973 59.6379C27.0606 58.3195 25.6571 57.3142 24.176 57.6097C22.418 57.9606 21.2391 59.6875 21.9515 61.3326C22.8486 63.4045 24.2136 65.2482 25.9525 66.7031C28.5173 68.849 31.7349 70.0148 35.0511 69.9999C38.3674 69.9849 41.5748 68.7901 44.1208 66.6212C45.847 65.1507 47.1959 63.295 48.0751 61.2153Z" fill="white"/>
</svg>
